<svg width="80" height="18" viewBox="0 0 80 18" fill="none" xmlns="http://www.w3.org/2000/svg">
<g clip-path="url(#clip0_6776_48882)">
<mask id="mask0_6776_48882" style="mask-type:luminance" maskUnits="userSpaceOnUse" x="0" y="0" width="80" height="18">
<path d="M79.6702 0H0V17.8528H79.6702V0Z" fill="white"/>
</mask>
<g mask="url(#mask0_6776_48882)">
<path d="M38.8278 4.75277C37.2188 4.75277 35.633 5.42807 34.4223 6.75574V0.208496H32.0264V11.2312C32.0264 11.2314 32.0264 11.2317 32.0264 11.232C32.0264 14.8104 34.9936 17.7112 38.6539 17.7112C42.3142 17.7112 45.2814 14.8104 45.2814 11.232C45.2814 7.65367 42.4881 4.75277 38.8278 4.75277ZM38.6539 15.2156C36.4034 15.2156 34.579 13.4321 34.579 11.232C34.579 9.03184 36.4034 7.24827 38.6539 7.24827C40.9044 7.24827 42.7288 9.03184 42.7288 11.232C42.7288 13.4321 40.9044 15.2156 38.6539 15.2156Z" fill="#F3F3F5"/>
</g>
<mask id="mask1_6776_48882" style="mask-type:luminance" maskUnits="userSpaceOnUse" x="0" y="0" width="80" height="18">
<path d="M79.6702 0H0V17.8528H79.6702V0Z" fill="white"/>
</mask>
<g mask="url(#mask1_6776_48882)">
<path d="M53.6735 4.75277C52.0645 4.75277 50.4787 5.42807 49.2679 6.75574V0.208496H46.8721V11.2312C46.8721 11.2314 46.8721 11.2317 46.8721 11.232C46.8721 14.8104 49.8393 17.7112 53.4996 17.7112C57.1598 17.7112 60.1271 14.8104 60.1271 11.232C60.1271 7.65367 57.3337 4.75277 53.6735 4.75277ZM53.4996 15.2156C51.2491 15.2156 49.4247 13.4321 49.4247 11.232C49.4247 9.03184 51.2491 7.24827 53.4996 7.24827C55.7501 7.24827 57.5745 9.03184 57.5745 11.232C57.5745 13.4321 55.7501 15.2156 53.4996 15.2156Z" fill="#F3F3F5"/>
</g>
<mask id="mask2_6776_48882" style="mask-type:luminance" maskUnits="userSpaceOnUse" x="0" y="0" width="80" height="18">
<path d="M79.6702 0H0V17.8528H79.6702V0Z" fill="white"/>
</mask>
<g mask="url(#mask2_6776_48882)">
<path d="M18.5459 12.3672V5.10449H21.1157V12.3444C21.1157 14.1943 22.2137 15.3819 24.0593 15.3819C25.9281 15.3819 27.0028 14.2399 27.0028 12.3444V5.10449H29.5959V12.3672C29.5959 15.7244 27.5168 17.7114 24.0593 17.7114C20.6951 17.7114 18.5459 15.656 18.5459 12.3672Z" fill="#F3F3F5"/>
</g>
<mask id="mask3_6776_48882" style="mask-type:luminance" maskUnits="userSpaceOnUse" x="0" y="0" width="80" height="18">
<path d="M79.6702 0H0V17.8528H79.6702V0Z" fill="white"/>
</mask>
<g mask="url(#mask3_6776_48882)">
<path d="M64.7641 0.208496H62.1943V17.4142H64.7641V0.208496Z" fill="#F3F3F5"/>
</g>
<mask id="mask4_6776_48882" style="mask-type:luminance" maskUnits="userSpaceOnUse" x="0" y="0" width="80" height="18">
<path d="M79.6702 0H0V17.8528H79.6702V0Z" fill="white"/>
</mask>
<g mask="url(#mask4_6776_48882)">
<path d="M79.31 12.2298H69.4747C69.8486 14.1482 71.2269 15.45 73.6565 15.45C75.0816 15.45 76.8103 14.9247 77.9317 14.1254L79.0063 15.9753C77.7214 16.9117 75.689 17.6882 73.563 17.6882C68.844 17.6882 66.8115 14.4679 66.8115 11.2249C66.8115 9.3749 67.3956 7.84468 68.5871 6.63419C69.7785 5.42375 71.3438 4.80713 73.236 4.80713C75.0348 4.80713 76.5299 5.35527 77.6747 6.47431C78.8194 7.59343 79.4034 9.10076 79.4034 11.0192C79.4034 11.3619 79.38 11.7729 79.31 12.2298ZM69.4747 10.1742H76.8103C76.6001 8.23294 75.1283 6.97685 73.236 6.97685C71.2969 6.97685 69.8485 8.25578 69.4747 10.1742Z" fill="#F3F3F5"/>
</g>
<mask id="mask5_6776_48882" style="mask-type:luminance" maskUnits="userSpaceOnUse" x="0" y="0" width="80" height="18">
<path d="M79.6702 0H0V17.8528H79.6702V0Z" fill="white"/>
</mask>
<g mask="url(#mask5_6776_48882)">
<path d="M10.3874 4.75277C8.77838 4.75277 7.19254 5.42807 5.98182 6.75574V0.208496H3.58594V11.2312C3.58594 11.2314 3.58594 11.2317 3.58594 11.232C3.58594 14.8104 6.55316 17.7112 10.2135 17.7112C13.8737 17.7112 16.841 14.8104 16.841 11.232C16.841 7.65367 14.0476 4.75277 10.3874 4.75277ZM10.2135 15.2156C7.96297 15.2156 6.13856 13.4321 6.13856 11.232C6.13856 9.03184 7.96297 7.24827 10.2135 7.24827C12.4639 7.24827 14.2883 9.03184 14.2883 11.232C14.2883 13.4321 12.4639 15.2156 10.2135 15.2156Z" fill="#F3F3F5"/>
</g>
<mask id="mask6_6776_48882" style="mask-type:luminance" maskUnits="userSpaceOnUse" x="0" y="0" width="80" height="18">
<path d="M79.6702 0H0V17.8528H79.6702V0Z" fill="white"/>
</mask>
<g mask="url(#mask6_6776_48882)">
<path d="M1.84396 14.5068C0.938805 14.5068 0.205078 15.2242 0.205078 16.109C0.205078 16.9939 0.938805 17.7112 1.84396 17.7112C2.74911 17.7112 3.48284 16.9939 3.48284 16.109C3.48284 15.2242 2.74911 14.5068 1.84396 14.5068Z" fill="#F3F3F5"/>
</g>
</g>
<defs>
<clipPath id="clip0_6776_48882">
<rect width="79.6702" height="17.8528" fill="white"/>
</clipPath>
</defs>
</svg>
