<svg width="64" height="18" viewBox="0 0 64 18" fill="none" xmlns="http://www.w3.org/2000/svg">
<g clip-path="url(#clip0_6776_48914)">
<path d="M47.1997 13.8681C48.3584 13.8681 49.2978 12.936 49.2978 11.7863C49.2978 10.6366 48.3584 9.70459 47.1997 9.70459C46.0409 9.70459 45.1016 10.6366 45.1016 11.7863C45.1016 12.936 46.0409 13.8681 47.1997 13.8681Z" fill="#F3F3F5"/>
<path d="M16.6586 0H19.435V17.7652H16.6586V0ZM29.547 12.287C29.547 15.0417 27.2753 15.2609 26.5812 15.2609C24.8459 15.2609 24.5935 13.6487 24.5935 12.6783V5.80696H21.8013V12.6626C21.7856 14.3687 22.2746 15.7774 23.2211 16.7165C24.0807 17.4768 25.1758 17.9237 26.3258 17.9835C27.4758 18.0432 28.612 17.7123 29.547 17.0452V17.7652H32.3392V5.80696H29.547V12.287ZM38.3653 1.78435H35.5731V5.80696H33.6327V8.42087H35.5731V17.7652H38.3653V8.42087H40.6527V5.80696H38.3653V1.78435ZM49.6919 14.3687C49.0609 14.9322 48.2248 15.2452 47.3098 15.2452C46.845 15.2583 46.3824 15.1768 45.9505 15.0058C45.5186 14.8348 45.1266 14.5779 44.7985 14.251C44.4704 13.924 44.2133 13.5338 44.0429 13.1046C43.8725 12.6753 43.7925 12.2159 43.8077 11.7548C43.8077 9.73565 45.2433 8.32696 47.3098 8.32696C48.209 8.32696 49.0609 8.62435 49.7077 9.18783L50.1494 9.56348L52.1055 7.62261L51.6165 7.18435C50.4319 6.13601 48.8971 5.56149 47.3098 5.57217C43.6815 5.57217 41.0471 8.17043 41.0471 11.7391C41.0278 12.5618 41.1764 13.3799 41.4839 14.1442C41.7914 14.9085 42.2515 15.6032 42.8365 16.1866C43.4215 16.7699 44.1193 17.2299 44.8881 17.5389C45.6568 17.8478 46.4806 17.9993 47.3098 17.9843C48.9662 17.9843 50.5122 17.4052 51.648 16.3565L52.1213 15.9183L50.1336 13.9774L49.6919 14.3687ZM62.5802 6.85565C61.7206 6.09536 60.6255 5.64847 59.4755 5.58872C58.3255 5.52897 57.1893 5.85991 56.2544 6.52696V0H53.4622V17.7652H56.2544V11.3009C56.2544 8.54609 58.526 8.32696 59.2201 8.32696C60.9554 8.32696 61.2078 9.93913 61.2078 10.9096V17.7809H64V10.9096C64.0842 9.42534 63.5739 7.96823 62.5802 6.85565ZM12.5413 13.5078C11.9981 14.0615 11.3478 14.5008 10.6295 14.7993C9.91124 15.0978 9.13962 15.2495 8.36086 15.2452C5.12694 15.2452 2.77644 12.7252 2.77644 9.26609C2.77644 5.7913 5.12694 3.2713 8.36086 3.2713C9.9226 3.2713 11.4055 3.88174 12.5255 4.99304L12.9672 5.4313L14.9076 3.50609L14.4816 3.06783C13.6812 2.26007 12.7258 1.61956 11.6719 1.18406C10.6179 0.748566 9.48676 0.526912 8.34508 0.532174C3.59675 0.532174 0 4.2887 0 9.28174C0 14.2435 3.59675 18 8.34508 18C10.6956 18 12.8726 17.0922 14.4816 15.4487L14.9076 15.0104L12.983 13.0539L12.5413 13.5078Z" fill="#F3F3F5"/>
</g>
<defs>
<clipPath id="clip0_6776_48914">
<rect width="64" height="18" fill="white"/>
</clipPath>
</defs>
</svg>
