<svg xmlns="http://www.w3.org/2000/svg" version="1.1" xmlns:xlink="http://www.w3.org/1999/xlink" width="341.56960666548326" height="200" viewBox="-3.696000099182129 7.159999847412109 97.93599700927734 53.20000076293945"><path d="M16.28 20.72L16.28 20.72L16.24 20.16Q16.16 19.52 16 17.92Q15.84 16.32 15.80 15.64Q15.76 14.96 15.70 13.38Q15.64 11.80 15.76 11.12L15.76 11.12Q15.20 12.24 13.40 15.04L13.40 15.04Q11.12 18.68 11.04 19L11.04 19Q10.84 20 11.28 20.92L11.28 20.92Q11.40 21.12 14.92 21.20L14.92 21.20Q15.60 20.92 16.28 20.72ZM29.92 31.60L28.80 32.72L27.20 34L25.80 35.12L24.64 35.92Q23.84 36.52 23.08 36.96L23.08 36.96L21.24 37.92Q20.68 38.20 19.48 38.68L19.48 38.68Q20.16 44.40 18.68 46.60L18.68 46.60L17.56 47.72Q15.72 48.40 12.52 48.38Q9.32 48.36 6.08 47.78Q2.84 47.20 0.14 45.76Q-2.56 44.32-3.28 42.36L-3.28 42.36Q-3.60 41.52-3.66 40.66Q-3.72 39.80-3.68 39.10Q-3.64 38.40-3.28 37.50Q-2.92 36.60-2.68 36.06Q-2.44 35.52-1.82 34.60Q-1.20 33.68-0.90 33.28Q-0.60 32.88 0.16 31.94Q0.92 31 1.12 30.72L1.12 30.72L2.24 29.60Q8.12 24.56 12.52 22.28L12.52 22.28Q10.24 22.24 10.16 22.04L10.16 22.04Q9.72 21.16 9.92 20.12L9.92 20.12Q10 19.80 12.28 16.16L12.28 16.16Q12.40 16 12.60 15.64L12.60 15.64L14.08 13.28Q14.56 12.48 15.22 11.12Q15.88 9.76 16.28 8.56L16.28 8.56L16.36 8.28L17.48 7.16L17.40 7.40Q17.08 8.48 16.94 9.62Q16.80 10.76 16.82 12.10Q16.84 13.44 16.90 14.30Q16.96 15.16 17.14 16.78Q17.32 18.40 17.36 19.04L17.36 19.04L17.48 20.36Q20.96 19.40 24.48 19.60L24.48 19.60Q25.76 19.68 27 20.04L27 20.04L30.88 18.40L35.12 16.56L34 17.68L27.80 20.36Q30.52 21.44 31.84 23.68L31.84 23.68Q33.12 25.96 31.92 28.80L31.92 28.80Q31.72 29.28 31.40 29.74Q31.08 30.20 30.62 30.74Q30.16 31.28 29.92 31.60L29.92 31.60ZM25.08 20.96L25.08 20.96Q24.20 20.76 23.36 20.72L23.36 20.72Q20.40 20.56 17.56 21.20L17.56 21.20L17.88 25.36Q21.76 22.64 25.08 20.96ZM25.88 21.20L25.88 21.20Q21.80 23.04 17.92 25.68L17.92 25.68Q18.32 30.32 18.68 33.44L18.68 33.44Q18.76 34.08 19.02 35.66Q19.28 37.24 19.36 38.04L19.36 38.04Q21.44 37.28 22.36 36.80L22.36 36.80Q23 36.48 23.56 36.16L23.56 36.16L24.48 35.60Q24.88 35.40 25.38 35.08Q25.88 34.76 26.08 34.60L26.08 34.60L26.88 34.04L27.56 33.52Q27.72 33.40 28.40 32.84L28.40 32.84L29.24 32.12Q30.52 30.56 30.80 29.92L30.80 29.92Q32.08 26.88 30.52 24.52Q28.96 22.16 25.88 21.20ZM9.56 32.60L10.68 31.48L12.56 29.76L14.76 27.76Q15.76 26.88 16.72 26.20L16.72 26.20L16.36 21.48L16.20 21.52L15.36 22.36Q15.28 22.36 13.80 22.32L13.80 22.32Q8.56 24.40 1.88 30.08L1.88 30.08Q1.72 30.24 1.48 30.60L1.48 30.60Q0.64 31.60 0.24 32.16L0.24 32.16L-0.84 33.76Q-1.52 34.76-1.82 35.52Q-2.12 36.28-2.40 37.28Q-2.68 38.28-2.60 39.26Q-2.52 40.24-2.16 41.24L-2.16 41.24Q-1.60 42.76 0.16 43.96Q1.92 45.16 4.26 45.88Q6.60 46.60 9.16 46.96Q11.72 47.32 14.08 47.28Q16.44 47.24 18.04 46.80L18.04 46.80Q18.96 44.40 18.24 39.16L18.24 39.16Q9.80 42.28 7 40.96L7 40.96Q5.16 40.12 6.36 37.24L6.36 37.24Q6.68 36.48 7.22 35.70Q7.76 34.92 8.48 34.02Q9.20 33.12 9.56 32.60L9.56 32.60ZM11.68 30.64L10.44 31.80Q10.20 32.16 9.46 33.08Q8.72 34 8.26 34.70Q7.80 35.40 7.48 36.12L7.48 36.12Q6.60 38.24 7.36 39.26Q8.12 40.28 10.52 40.20L10.52 40.20Q13.44 40.12 18.16 38.48L18.16 38.48Q18.08 38.04 17.86 36.60Q17.64 35.16 17.56 34.56L17.56 34.56Q17.16 31.36 16.76 26.48L16.76 26.48L15.72 27.24Q15.04 27.72 14.32 28.36L14.32 28.36L13.04 29.44Q12.56 29.84 11.68 30.64L11.68 30.64ZM36.04 35.56L36.04 35.56L37.16 34.44Q36.52 38.16 36.96 38.56L36.96 38.56Q37.16 38.72 37.96 38.72L37.96 38.72Q38.92 37.36 40.32 34.80L40.32 34.80L41.44 33.68Q39.60 37.08 38.20 38.72L38.20 38.72L37.08 39.84Q36.84 39.80 36.64 39.84Q36.44 39.88 36.20 39.84Q35.96 39.80 35.84 39.68L35.84 39.68Q35.36 39.28 36.04 35.56ZM41.52 38.68L41.52 38.68Q43.96 38.24 48.36 37.12L48.36 37.12Q48.44 37.08 48.54 36.96Q48.64 36.84 48.72 36.76Q48.80 36.68 48.86 36.60Q48.92 36.52 48.92 36.48Q48.92 36.44 48.84 36.40L48.84 36.40Q45.96 35.76 41.52 38.68ZM50.32 37.48L48.20 38.04Q47.72 38.88 47.40 39.72L47.40 39.72L46.28 40.84Q46.72 39.64 47.68 38.16L47.68 38.16Q42.48 39.48 39.80 39.92L39.80 39.92L40.92 38.80Q46.56 34.52 49.96 35.28L49.96 35.28Q50.08 35.36 50.02 35.46Q49.96 35.56 49.72 35.80L49.72 35.80L49.40 36.12L48.80 37.04L51.44 36.36L50.32 37.48ZM49.80 25.08L49.80 25.08Q47.48 25.60 45.68 26.24L45.68 26.24Q45.68 26.36 45.76 26.48L45.76 26.48Q46.08 26.84 48.44 27.44L48.44 27.44Q49.16 26.12 49.80 25.08ZM54.84 18.84L54.84 18.84L53.68 20.32L52.60 21.64Q52.28 22.04 51.80 22.72L51.80 22.72L50.92 23.96Q53.48 23.40 57.96 22.68L57.96 22.68L65.48 21.44Q68.60 20.92 72.16 19.74Q75.72 18.56 78.04 16.92L78.04 16.92Q78.32 15.56 77.84 14.54Q77.36 13.52 76.40 12.94Q75.44 12.36 74.10 12.02Q72.76 11.68 71.56 11.60L71.56 11.60Q70.36 11.52 69.12 11.60L69.12 11.60Q64.96 11.84 61.72 13.68L61.72 13.68Q58.48 15.52 54.84 18.84ZM66.52 32.84L66.52 32.84Q65.64 32.84 64.84 32.96L64.84 32.96L65.08 33.12Q65.80 32.96 66.52 32.84ZM51.36 37.32L51.36 37.32Q53.20 36.92 56.58 35.66Q59.96 34.40 61.24 34.04L61.24 34.04Q62.12 33.80 62.96 33.60L62.96 33.60L62.56 33.32Q57.36 34.36 51.36 37.32ZM48.72 38.68L49.84 37.56Q56.16 34.12 61.44 32.72L61.44 32.72L60.44 32.24Q59.92 32 59.32 31.76L59.32 31.76L58.28 31.40Q57.88 31.24 57.16 31.04L57.16 31.04L56.12 30.72Q55.76 30.64 54.94 30.42Q54.12 30.20 53.92 30.14Q53.72 30.08 52.80 29.86Q51.88 29.64 51.80 29.60L51.80 29.60Q51.68 29.56 50.44 29.28L50.44 29.28L48.36 28.84Q47.44 30.88 46.82 32.90Q46.20 34.92 45.92 36.96Q45.64 39 45.78 40.72Q45.92 42.44 46.70 43.76Q47.48 45.08 48.84 45.76Q50.20 46.44 52.52 46.32Q54.84 46.20 57.88 45.12L57.88 45.12Q59.68 44.48 63.08 42.60L63.08 42.60L64.48 41.80Q65.12 41.44 65.56 41.16L65.56 41.16L66.52 40.52L67.36 40Q67.64 39.80 68.20 39.36L68.20 39.36L69 38.72L69.96 37.96L70.96 37.12L71.08 37Q71.52 36.40 71.72 36.08L71.72 36.08L72.20 35.36Q72.52 34.88 72.56 34.64Q72.60 34.40 72.60 34.10Q72.60 33.80 72.36 33.60Q72.12 33.40 71.72 33.24L71.72 33.24Q69.72 33.24 66.24 33.80L66.24 33.80L65.96 33.84Q67.80 35.52 68.68 37.68L68.68 37.68L67.56 38.80Q66.48 36.12 63.92 34.24L63.92 34.24Q62.04 34.64 60.12 35.16L60.12 35.16Q59.24 35.40 55.08 36.92Q50.92 38.44 48.72 38.68L48.72 38.68ZM73.72 33.40L73.72 33.40Q73.64 33.64 73.52 33.90Q73.40 34.16 73.16 34.52Q72.92 34.88 72.76 35.12L72.76 35.12L72.20 35.84Q71.84 36.32 71.68 36.56L71.68 36.56L70.56 37.68L69 38.96L67.64 40.08Q67.24 40.36 66.52 40.88L66.52 40.88L65.24 41.76Q64.72 42.12 63.88 42.64L63.88 42.64L61.96 43.72Q58.56 45.60 56.76 46.24L56.76 46.24Q53.56 47.36 51.18 47.46Q48.80 47.56 47.46 46.76Q46.12 45.96 45.38 44.50Q44.64 43.04 44.60 41.18Q44.56 39.32 44.96 37.14Q45.36 34.96 46.08 32.86Q46.80 30.76 47.80 28.72L47.80 28.72Q45 28.04 44.64 27.60L44.64 27.60Q44.56 27.40 44.56 27.28Q44.56 27.16 44.64 26.92Q44.72 26.68 44.72 26.56L44.72 26.56L45.84 25.44Q47.84 24.68 50.48 24.08L50.48 24.08Q50.72 23.76 53.96 19.68L53.96 19.68L55.08 18.56Q57.04 16.72 58.50 15.52Q59.96 14.32 61.88 13.12Q63.80 11.92 65.88 11.26Q67.96 10.60 70.24 10.48L70.24 10.48Q71.48 10.40 72.74 10.48Q74 10.56 75.36 10.92Q76.72 11.28 77.66 11.88Q78.60 12.48 79.04 13.58Q79.48 14.68 79.08 16.12L79.08 16.12L77.96 17.24Q76.16 18.76 73.66 19.90Q71.16 21.04 68.16 21.74Q65.16 22.44 62.44 22.88L62.44 22.88L56.12 23.92Q52.56 24.48 50.32 25L50.32 25Q49.80 25.88 49.20 27.04L49.20 27.04L48.92 27.60Q49.96 27.84 51.40 28.14Q52.84 28.44 52.92 28.48L52.92 28.48Q53 28.48 53.94 28.72Q54.88 28.96 55.06 29.02Q55.24 29.08 56.12 29.30Q57 29.52 57.28 29.60Q57.56 29.68 58.34 29.92Q59.12 30.16 59.48 30.32L59.48 30.32L60.52 30.72Q61.20 30.96 61.66 31.16Q62.12 31.36 62.66 31.64Q63.20 31.92 63.68 32.20L63.68 32.20Q64.48 32.04 65.24 31.92L65.24 31.92Q67.48 31.56 70.36 31.72L70.36 31.72Q72.08 31.80 72.84 32.12L72.84 32.12Q78.68 32.12 75.88 36.16L75.88 36.16Q75.48 36.76 74.94 37.36Q74.40 37.96 73.64 38.72L73.64 38.72L72.56 39.80Q71.84 40.60 69.04 43.40Q66.24 46.20 64.60 48.16L64.60 48.16Q62.92 50.16 61.68 52.32L61.68 52.32Q59.28 56.48 60.80 58L60.80 58Q61.12 58.32 61.58 58.52Q62.04 58.72 62.64 58.90Q63.24 59.08 63.56 59.24L63.56 59.24L62.44 60.36Q62.12 60.24 61.52 60.04Q60.92 59.84 60.46 59.64Q60 59.44 59.68 59.12L59.68 59.12Q58.16 57.60 60.56 53.44L60.56 53.44Q61.80 51.32 63.46 49.34Q65.12 47.36 67.88 44.56L67.88 44.56L71.44 40.92Q71.76 40.56 72.50 39.82Q73.24 39.08 73.78 38.48Q74.32 37.88 74.76 37.28L74.76 37.28Q77 34.08 73.72 33.40ZM80.36 34.96L80.36 34.96Q77.96 37.80 78.80 38.84L78.80 38.84Q79.36 37.96 82.16 34.40L82.16 34.40Q83.04 33.32 82.80 33.32L82.80 33.32Q82.48 33.36 80.36 34.96ZM78.60 40.52L78.60 40.52L77.60 41.52Q77.64 41 78 40.28L78 40.28Q76.32 39.24 79.96 35.28L79.96 35.28L81.08 34.16Q84 31.92 84 32.24L84 32.24Q84 32.40 81.92 34.96L81.92 34.96Q79.84 37.64 79.12 39.12L79.12 39.12Q79.80 39.52 81.20 39.56Q82.60 39.60 84.82 39.44Q87.04 39.28 88.12 39.28L88.12 39.28L87 40.40Q85.92 40.40 83.90 40.54Q81.88 40.68 80.92 40.70Q79.96 40.72 78.60 40.52ZM91.48 35L91.48 35Q91.12 37.44 90.76 38.88L90.76 38.88Q90.64 39.32 90.14 40.14Q89.64 40.96 89.52 41.40L89.52 41.40L88.40 42.52Q88.44 41.52 88.20 35.88L88.20 35.88L87.76 36.32Q87.52 34.84 87.04 33.28L87.04 33.28L88.16 32.16Q88.28 32.32 88.56 32.60Q88.84 32.88 89.02 33.14Q89.20 33.40 89.28 33.68L89.28 33.68Q89.40 34.16 89.52 40.36L89.52 40.36Q89.60 40.16 89.64 40L89.64 40Q89.88 39.04 90.08 37.92L90.08 37.92L90.44 35.44L90.76 33.32L91.88 32.20Q92.68 33.80 93.00 35.24L93.00 35.24Q93.12 35.72 93.24 35.80Q93.36 35.88 94.00 35.80L94.00 35.80L94.24 35.80L93.12 36.92Q93.04 36.92 92.88 36.96L92.88 36.96Q92.24 37 92.10 36.92Q91.96 36.84 91.88 36.36L91.88 36.36Q91.72 35.64 91.48 35Z" fill="white"></path></svg>