<svg width="875" height="579" viewBox="0 0 875 579" fill="none" xmlns="http://www.w3.org/2000/svg">
<path d="M635.82 38.4929C644.322 38.4929 650.996 44.3519 650.996 53.6109C650.996 62.8699 644.322 68.6378 635.82 68.6378C627.317 68.6378 620.735 62.8699 620.735 53.6109C620.735 44.3519 627.348 38.4929 635.82 38.4929ZM635.881 66.8467C643.469 66.8467 649.076 61.8681 649.076 53.6109C649.076 45.3537 643.469 40.3751 635.881 40.3751C628.293 40.3751 622.624 45.293 622.624 53.6109C622.624 61.9288 628.171 66.8467 635.881 66.8467ZM643.987 50.5752C643.987 53.2466 642.341 54.977 639.873 55.4931L644.322 61.1395H640.726L636.49 55.7056H631.797V61.1395H628.719V45.5055H638.136C641.61 45.5055 644.017 47.3269 644.017 50.5752H643.987ZM631.706 53.2466H637.404C639.568 53.2466 640.817 52.4573 640.817 50.7269C640.817 48.8448 639.568 48.1162 637.404 48.1162H631.706V53.2466Z" fill="white"></path>
<path d="M242.184 45.0501C240.233 41.2858 240.721 37.1572 242.732 34L133.238 138.247C130.099 141.253 127.022 144.38 124.705 147.992C119.677 155.703 113.186 171.185 125.406 194.925L254.617 496.313C262.815 512.281 278.997 522.633 297.007 523.422L646.79 524.91C668.183 525.547 679.702 523.149 686.102 506.483L749.702 359.128C746.502 364.076 740.864 367.416 734.16 367.082L449.043 354.119H442.491C420.763 354.119 408.055 363.591 394.067 380.621L323.184 460.977C319.466 465.5 315.566 463.345 318.887 458.518L368.256 379.012C383.097 357.428 385.199 329.712 373.893 307.46L242.184 45.0501Z" fill="white"></path>
<path d="M734.373 338.576L586.391 121.824L585.872 121.035L585.446 120.245C574.292 98.9042 552.442 85.0612 528.337 84.0594L527.453 83.9987L526.57 83.8469L276.376 44.6858C271.317 43.8965 267.599 49.0876 269.855 53.6109L403.941 314.867C409.457 325.674 420.154 332.444 432.526 332.96L729.132 346.165L736.72 346.469L737.025 346.53C737.238 346.53 737.695 346.53 738.122 345.862C738.487 345.285 738.487 344.86 738.426 344.556L734.373 338.576ZM424.511 204.275L423.719 203.06L458.978 208.161L459.618 209.041C467.053 220.486 482.717 230.868 504.11 233.904C527.758 237.304 535.681 230.17 526.752 213.352L465.408 114.751L491.037 118.636L555.581 220.212C571.001 249.204 560.426 260.861 515.264 254.365C472.661 248.232 438.926 228.045 424.511 204.275ZM573.134 299.627C566.704 299.233 560.64 299.172 553.082 297.624L515.203 296.501C510.51 296.895 506.975 293.07 506.975 288.759C506.975 284.783 510.875 281.534 514.715 281.747C517.184 281.838 519.621 281.959 522.09 282.111C539.308 282.992 556.526 283.933 573.774 284.843C577.919 285.056 580.875 288.577 580.875 292.554C580.875 296.531 576.974 299.84 573.134 299.627Z" fill="white"></path>
</svg>